<svg width="24" height="24" viewBox="0 0 24 24" fill="none" xmlns="http://www.w3.org/2000/svg">
<path fill-rule="evenodd" clip-rule="evenodd" d="M11.3 6.19961H5C4.46957 6.19961 3.96086 6.41032 3.58579 6.7854C3.21071 7.16047 3 7.66918 3 8.19961V18.9996C3 19.53 3.21071 20.0387 3.58579 20.4138C3.96086 20.7889 4.46957 20.9996 5 20.9996H16C17.1 20.9996 18 19.9996 18 18.8996V10.9996L14 15.1996C13.7 15.4996 13.3 15.7996 12.8 15.8996L10.1 16.4996C8.4 16.7996 6.8 15.1996 7.1 13.3996L7.7 10.4996C7.8 9.99961 8.1 9.49961 8.4 9.19961L11.4 6.09961L11.3 6.19961Z" fill="#DFDEFF"/>
<path fill-rule="evenodd" clip-rule="evenodd" d="M19.8 4.29969C19.6119 3.82336 19.2563 3.43216 18.8 3.19969C18.4352 3.03966 18.0308 2.99224 17.6389 3.06351C17.2469 3.13478 16.8852 3.32148 16.6 3.59969L16 4.19969L18.9 7.19969L19.4 6.59969C19.5941 6.40166 19.747 6.16715 19.85 5.90969C19.953 5.65224 20.004 5.37694 20 5.09969C20 4.89969 20 4.59969 19.8 4.29969ZM17.4 8.69969L14.6 5.69969L9.8 10.6997L9.7 10.9997L9 13.9997C9 14.2997 9.3 14.6997 9.6 14.5997L12.3 13.9997L12.6 13.8997L17.3 8.89969L17.4 8.69969Z" fill="#DFDEFF"/>
</svg>
