<svg width="32" height="32" viewBox="0 0 32 32" fill="none" xmlns="http://www.w3.org/2000/svg">
<path d="M25.3991 6.54707C24.1767 5.31231 22.7207 4.3333 21.1159 3.66714C19.5112 3.00098 17.7899 2.66102 16.0524 2.66707C8.77242 2.66707 2.83909 8.6004 2.83909 15.8804C2.83909 18.2137 3.45242 20.4804 4.59909 22.4804L2.73242 29.3337L9.73242 27.4937C11.6658 28.5471 13.8391 29.1071 16.0524 29.1071C23.3324 29.1071 29.2658 23.1737 29.2658 15.8937C29.2658 12.3604 27.8924 9.0404 25.3991 6.54707ZM16.0524 26.8671C14.0791 26.8671 12.1458 26.3337 10.4524 25.3337L10.0524 25.0937L5.89242 26.1871L6.99909 22.1337L6.73242 21.7204C5.63608 19.9697 5.05394 17.9461 5.05242 15.8804C5.05242 9.82707 9.98575 4.89374 16.0391 4.89374C18.9724 4.89374 21.7324 6.04041 23.7991 8.12041C24.8224 9.13902 25.6334 10.3506 26.1849 11.685C26.7365 13.0193 27.0178 14.4499 27.0124 15.8937C27.0391 21.9471 22.1058 26.8671 16.0524 26.8671ZM22.0791 18.6537C21.7458 18.4937 20.1191 17.6937 19.8258 17.5737C19.5191 17.4671 19.3058 17.4137 19.0791 17.7337C18.8524 18.0671 18.2258 18.8137 18.0391 19.0271C17.8524 19.2537 17.6524 19.2804 17.3191 19.1071C16.9858 18.9471 15.9191 18.5871 14.6658 17.4671C13.6791 16.5871 13.0258 15.5071 12.8258 15.1737C12.6391 14.8404 12.7991 14.6671 12.9724 14.4937C13.1191 14.3471 13.3058 14.1071 13.4658 13.9204C13.6258 13.7337 13.6924 13.5871 13.7991 13.3737C13.9058 13.1471 13.8524 12.9604 13.7724 12.8004C13.6924 12.6404 13.0258 11.0137 12.7591 10.3471C12.4924 9.70707 12.2124 9.78707 12.0124 9.77374H11.3724C11.1458 9.77374 10.7991 9.85374 10.4924 10.1871C10.1991 10.5204 9.34576 11.3204 9.34576 12.9471C9.34576 14.5737 10.5324 16.1471 10.6924 16.3604C10.8524 16.5871 13.0258 19.9204 16.3324 21.3471C17.1191 21.6937 17.7324 21.8937 18.2124 22.0404C18.9991 22.2937 19.7191 22.2537 20.2924 22.1737C20.9324 22.0804 22.2524 21.3737 22.5191 20.6004C22.7991 19.8271 22.7991 19.1737 22.7058 19.0271C22.6124 18.8804 22.4124 18.8137 22.0791 18.6537Z" fill="#DFDEFF"/>
</svg>
