<svg width="32" height="32" viewBox="0 0 32 32" fill="none" xmlns="http://www.w3.org/2000/svg">
<mask id="mask0_545_547" style="mask-type:luminance" maskUnits="userSpaceOnUse" x="1" y="1" width="30" height="30">
<path d="M29.3327 16.0003C29.3349 17.7565 28.9892 19.4958 28.3153 21.1176C27.6414 22.7394 26.6529 24.2115 25.4067 25.449C24.1707 26.6828 22.7038 27.6609 21.0896 28.3275C19.4754 28.994 17.7457 29.3359 15.9994 29.3337C8.63536 29.3337 2.66603 23.3643 2.66603 16.0003C2.66137 12.5815 3.97461 9.29244 6.33269 6.817C7.57692 5.50407 9.07597 4.45883 10.7381 3.74526C12.4003 3.03168 14.1905 2.66478 15.9994 2.667C17.7457 2.66474 19.4754 3.00666 21.0896 3.67321C22.7038 4.33976 24.1707 5.31789 25.4067 6.55167C26.6529 7.78915 27.6414 9.26132 28.3153 10.8831C28.9892 12.5049 29.3349 14.2441 29.3327 16.0003Z" fill="white" stroke="white" stroke-width="2.66667" stroke-linecap="round" stroke-linejoin="round"/>
<path d="M29.3322 16.0004C27.3869 16.0004 22.0202 15.267 17.2169 17.3757C11.9989 19.667 8.22089 23.2217 6.57422 25.4317" stroke="black" stroke-width="2.66667" stroke-linecap="round" stroke-linejoin="round"/>
<path d="M11 3.63672C13.0867 5.56272 17.64 10.4661 19.3333 15.3341C21.0267 20.2021 21.6533 26.1874 22.04 27.8907" stroke="black" stroke-width="2.66667" stroke-linecap="round" stroke-linejoin="round"/>
<path d="M2.76953 14.3335C5.2882 14.4855 11.9555 14.6221 16.2222 12.8001C20.4889 10.9781 24.1602 7.62681 25.4195 6.56348" stroke="black" stroke-width="2.66667" stroke-linecap="round" stroke-linejoin="round"/>
<path d="M3.66603 21.0757C4.8409 23.9196 6.95983 26.2718 9.66603 27.7363M2.66603 16.0003C2.66137 12.5815 3.97461 9.29244 6.33269 6.817C7.57692 5.50407 9.07597 4.45883 10.7381 3.74526C12.4003 3.03168 14.1905 2.66478 15.9994 2.667M21.3327 3.77634C22.8511 4.44069 24.2326 5.38183 25.4067 6.55167C26.6529 7.78915 27.6414 9.26132 28.3153 10.8831C28.9892 12.5049 29.3349 14.2441 29.3327 16.0003C29.3327 17.6417 29.036 19.2143 28.4927 20.667M15.9994 29.3337C17.7457 29.3359 19.4754 28.994 21.0896 28.3275C22.7038 27.6609 24.1707 26.6828 25.4067 25.449" stroke="white" stroke-width="2.66667" stroke-linecap="round" stroke-linejoin="round"/>
</mask>
<g mask="url(#mask0_545_547)">
<path d="M0 0H32V32H0V0Z" fill="#DFDEFF"/>
</g>
</svg>
