<svg width="64" height="64" viewBox="0 0 64 64" fill="none" xmlns="http://www.w3.org/2000/svg">
<path d="M57.5 20H46.5V18.5C46.497 14.7174 45.0177 11.0853 42.3769 8.37709C39.7362 5.66885 36.1426 4.09837 32.3613 4H31.6388C27.8574 4.09837 24.2638 5.66885 21.6231 8.37709C18.9823 11.0853 17.503 14.7174 17.5 18.5V20H6.5C6.36739 20 6.24021 20.0527 6.14645 20.1464C6.05268 20.2402 6 20.3674 6 20.5V58C6 58.5304 6.21071 59.0391 6.58579 59.4142C6.96086 59.7893 7.46957 60 8 60H56C56.5304 60 57.0391 59.7893 57.4142 59.4142C57.7893 59.0391 58 58.5304 58 58V20.5C58 20.3674 57.9473 20.2402 57.8536 20.1464C57.7598 20.0527 57.6326 20 57.5 20ZM22.5 18.625C22.5 13.395 26.6763 9.055 31.9062 9C33.1613 8.98895 34.4061 9.22644 35.569 9.69878C36.7318 10.1711 37.7896 10.869 38.6815 11.7521C39.5733 12.6352 40.2815 13.6862 40.7653 14.8443C41.249 16.0024 41.4987 17.2449 41.5 18.5V20H22.5V18.625ZM28.8512 50.14L21.18 41.175L24.2188 38.5737L28.75 43.8638L39.6888 30.1887L42.8138 32.6888L28.8512 50.14Z" fill="#DFDEFF"/>
</svg>
