<svg width="24" height="24" viewBox="0 0 24 24" fill="none" xmlns="http://www.w3.org/2000/svg">
<g filter="url(#filter0_d_511_1244)">
<path d="M20 7.2C20 6.77565 19.8468 6.36869 19.574 6.06863C19.3012 5.76857 18.9312 5.6 18.5455 5.6H13.9491L14.6473 1.944C14.6618 1.864 14.6691 1.776 14.6691 1.688C14.6691 1.36 14.5455 1.056 14.3491 0.84L13.5782 0L8.79273 5.264C8.52364 5.56 8.36364 5.96 8.36364 6.4V14.4C8.36364 14.8243 8.51688 15.2313 8.78966 15.5314C9.06244 15.8314 9.43241 16 9.81818 16H16.3636C16.9673 16 17.4836 15.6 17.7018 15.024L19.8982 9.384C19.9636 9.2 20 9.008 20 8.8V7.2ZM4 16H6.90909V6.4H4V16Z" fill="#DFDEFF"/>
</g>
<defs>
<filter id="filter0_d_511_1244" x="0" y="0" width="24" height="24" filterUnits="userSpaceOnUse" color-interpolation-filters="sRGB">
<feFlood flood-opacity="0" result="BackgroundImageFix"/>
<feColorMatrix in="SourceAlpha" type="matrix" values="0 0 0 0 0 0 0 0 0 0 0 0 0 0 0 0 0 0 127 0" result="hardAlpha"/>
<feOffset dy="4"/>
<feGaussianBlur stdDeviation="2"/>
<feComposite in2="hardAlpha" operator="out"/>
<feColorMatrix type="matrix" values="0 0 0 0 0 0 0 0 0 0 0 0 0 0 0 0 0 0 0.25 0"/>
<feBlend mode="normal" in2="BackgroundImageFix" result="effect1_dropShadow_511_1244"/>
<feBlend mode="normal" in="SourceGraphic" in2="effect1_dropShadow_511_1244" result="shape"/>
</filter>
</defs>
</svg>
