<svg width="32" height="32" viewBox="0 0 32 32" fill="none" xmlns="http://www.w3.org/2000/svg">
<path fill-rule="evenodd" clip-rule="evenodd" d="M6 4.32324C4.89543 4.32324 4 5.21867 4 6.32324V26.3232C4 27.4278 4.89543 28.3232 6 28.3232H26C27.1045 28.3232 28 27.4278 28 26.3232V6.32324C28 5.21867 27.1045 4.32324 26 4.32324H6ZM11.361 9.6602C11.3685 10.9352 10.4141 11.7208 9.28164 11.7152C8.21476 11.7096 7.28476 10.8602 7.29039 9.66208C7.29601 8.5352 8.18664 7.62958 9.34352 7.65583C10.5173 7.68208 11.3685 8.54271 11.361 9.6602ZM16.3729 13.3389H13.0129H13.0111V24.752H16.5623V24.4858C16.5623 23.9792 16.5619 23.4726 16.5615 22.9658C16.5604 21.614 16.5592 20.2608 16.5661 18.9095C16.568 18.5814 16.5829 18.2402 16.6673 17.927C16.9841 16.757 18.0361 16.0014 19.2099 16.1871C19.9636 16.3051 20.4623 16.742 20.6723 17.4527C20.8017 17.897 20.8599 18.3751 20.8655 18.8383C20.8807 20.2351 20.8785 21.6319 20.8764 23.0288C20.8756 23.5219 20.8748 24.0152 20.8748 24.5083V24.7502H24.4373V24.4764C24.4373 23.8738 24.4371 23.2712 24.4367 22.6687C24.436 21.1627 24.4352 19.6567 24.4392 18.1502C24.4411 17.4695 24.368 16.7983 24.2011 16.1402C23.9517 15.1614 23.4361 14.3514 22.598 13.7664C22.0036 13.3502 21.3511 13.082 20.6217 13.052C20.5387 13.0486 20.4549 13.0441 20.3708 13.0395C19.9979 13.0194 19.6188 12.9989 19.2623 13.0708C18.2423 13.2752 17.3461 13.742 16.6692 14.5651C16.5905 14.6595 16.5136 14.7554 16.3988 14.8984L16.3729 14.9308V13.3389ZM7.57552 24.7558H11.1099V13.3463H7.57552V24.7558Z" fill="#DFDEFF"/>
</svg>
