<svg width="25" height="24" viewBox="0 0 25 24" fill="none" xmlns="http://www.w3.org/2000/svg">
<path d="M23.4991 17C23.4991 20.31 20.8091 23 17.4991 23V21.5C19.9991 21.5 21.9991 19.5 21.9991 17H23.4991ZM1.49914 7C1.49914 3.69 4.18914 1 7.49914 1V2.5C4.99914 2.5 2.99914 4.5 2.99914 7H1.49914ZM8.49914 4.32L3.90914 8.92C0.689141 12.14 0.689141 17.37 3.90914 20.59C7.12914 23.81 12.3591 23.81 15.5791 20.59L22.6491 13.5C23.1391 13.03 23.1391 12.24 22.6491 11.75C22.533 11.6336 22.3951 11.5412 22.2432 11.4782C22.0914 11.4152 21.9286 11.3828 21.7641 11.3828C21.5997 11.3828 21.4369 11.4152 21.2851 11.4782C21.1332 11.5412 20.9953 11.6336 20.8791 11.75L16.4591 16.17L15.7491 15.46L22.2891 8.92C22.7791 8.43 22.7791 7.64 22.2891 7.15C21.7991 6.66 20.9991 6.66 20.4991 7.15L14.6891 13L13.9991 12.27L20.8691 5.38C21.3591 4.89 21.3591 4.1 20.8691 3.61C20.3791 3.12 19.5891 3.12 19.0991 3.61L12.2091 10.5L11.4991 9.8L16.9991 4.32C17.4991 3.83 17.4991 3.04 16.9991 2.55C16.4991 2.06 15.7191 2.06 15.2291 2.55L7.60914 10.17C8.20578 10.9396 8.50141 11.9004 8.44067 12.8723C8.37992 13.8442 7.96697 14.7606 7.27914 15.45L6.56914 14.74C7.13094 14.1775 7.4465 13.415 7.4465 12.62C7.4465 11.825 7.13094 11.0625 6.56914 10.5L6.21914 10.15L10.2891 6.08C10.7791 5.59 10.7791 4.8 10.2891 4.31C9.78914 3.83 8.99914 3.83 8.49914 4.32Z" fill="#DFDEFF"/>
</svg>
