<svg width="32" height="32" viewBox="0 0 32 32" fill="none" xmlns="http://www.w3.org/2000/svg">
<path d="M15.9993 2.66699C14.2484 2.66699 12.5146 3.01187 10.8969 3.68193C9.27923 4.35199 7.80937 5.33412 6.57126 6.57224C4.07077 9.07272 2.66602 12.4641 2.66602 16.0003C2.66602 21.8937 6.49268 26.8937 11.786 28.667C12.4527 28.7737 12.666 28.3603 12.666 28.0003V25.747C8.97268 26.547 8.18602 23.9603 8.18602 23.9603C7.57268 22.4137 6.70602 22.0003 6.70602 22.0003C5.49268 21.1737 6.79935 21.2003 6.79935 21.2003C8.13268 21.2937 8.83935 22.5737 8.83935 22.5737C9.99935 24.6003 11.9593 24.0003 12.7193 23.6803C12.8393 22.8137 13.186 22.227 13.5593 21.8937C10.5993 21.5603 7.49268 20.4137 7.49268 15.3337C7.49268 13.8537 7.99935 12.667 8.86602 11.7203C8.73268 11.387 8.26602 10.0003 8.99935 8.20033C8.99935 8.20033 10.1193 7.84033 12.666 9.56033C13.7193 9.26699 14.866 9.12033 15.9993 9.12033C17.1327 9.12033 18.2793 9.26699 19.3327 9.56033C21.8793 7.84033 22.9993 8.20033 22.9993 8.20033C23.7327 10.0003 23.266 11.387 23.1327 11.7203C23.9993 12.667 24.506 13.8537 24.506 15.3337C24.506 20.427 21.386 21.547 18.4127 21.8803C18.8927 22.2937 19.3327 23.107 19.3327 24.347V28.0003C19.3327 28.3603 19.546 28.787 20.226 28.667C25.5193 26.8803 29.3327 21.8937 29.3327 16.0003C29.3327 14.2494 28.9878 12.5156 28.3177 10.8979C27.6477 9.2802 26.6656 7.81035 25.4274 6.57224C24.1893 5.33412 22.7195 4.35199 21.1018 3.68193C19.4841 3.01187 17.7503 2.66699 15.9993 2.66699Z" fill="#DFDEFF"/>
</svg>
