<svg width="25" height="24" viewBox="0 0 25 24" fill="none" xmlns="http://www.w3.org/2000/svg">
<g clip-path="url(#clip0_478_22244)">
<path d="M11.0009 16.035L7.90488 12.94C7.62361 12.6586 7.24209 12.5005 6.84423 12.5004C6.44637 12.5003 6.06477 12.6582 5.78338 12.9395C5.50198 13.2208 5.34384 13.6023 5.34375 14.0001C5.34366 14.398 5.50161 14.7796 5.78288 15.061L11.4399 20.718C11.5792 20.8574 11.7446 20.968 11.9266 21.0434C12.1087 21.1188 12.3038 21.1577 12.5009 21.1577C12.6979 21.1577 12.8931 21.1188 13.0751 21.0434C13.2572 20.968 13.4226 20.8574 13.5619 20.718L19.2189 15.062C19.3582 14.9227 19.4687 14.7573 19.5441 14.5752C19.6195 14.3932 19.6584 14.198 19.6584 14.001C19.6584 13.804 19.6195 13.6088 19.5441 13.4268C19.4687 13.2447 19.3582 13.0793 19.2189 12.94C19.0795 12.8007 18.9141 12.6901 18.7321 12.6147C18.55 12.5393 18.3549 12.5005 18.1579 12.5005C17.9608 12.5005 17.7657 12.5393 17.5837 12.6147C17.4016 12.6901 17.2362 12.8007 17.0969 12.94L14.0009 16.035V4.5C14.0009 4.10218 13.8428 3.72064 13.5615 3.43934C13.2802 3.15804 12.8987 3 12.5009 3C12.1031 3 11.7215 3.15804 11.4402 3.43934C11.1589 3.72064 11.0009 4.10218 11.0009 4.5V16.035Z" fill="#DFDEFF"/>
</g>
<defs>
<clipPath id="clip0_478_22244">
<rect width="24" height="24" fill="white" transform="translate(0.5)"/>
</clipPath>
</defs>
</svg>
