<svg width="65" height="64" viewBox="0 0 65 64" fill="none" xmlns="http://www.w3.org/2000/svg">
<path d="M32.5007 5.33398C36.9206 5.33398 41.2314 6.7068 44.8373 9.26272C48.4432 11.8186 51.1663 15.4315 52.6301 19.6019C54.0939 23.7724 54.2263 28.2945 53.0089 32.5434C51.7914 36.7923 49.2843 40.5582 45.8341 43.3207V55.614C45.834 56.0879 45.7192 56.5547 45.4994 56.9746C45.2795 57.3944 44.9613 57.7547 44.5718 58.0247C44.1823 58.2946 43.7332 58.4662 43.2629 58.5247C42.7926 58.5833 42.3152 58.527 41.8714 58.3607L32.5007 54.8513L23.1301 58.366C22.6861 58.5324 22.2084 58.5886 21.7379 58.53C21.2674 58.4714 20.8182 58.2995 20.4286 58.0293C20.0391 57.759 19.7208 57.3983 19.5012 56.9781C19.2815 56.5579 19.167 56.0908 19.1674 55.6167V43.3233C15.7161 40.5612 13.208 36.7951 11.9899 32.5457C10.7719 28.2963 10.9039 23.7734 12.3679 19.6023C13.8318 15.4313 16.5554 11.8179 20.162 9.26189C23.7686 6.70584 28.0802 5.33329 32.5007 5.33398ZM32.5007 10.6673C28.2573 10.6673 24.1876 12.353 21.187 15.3536C18.1864 18.3542 16.5007 22.4239 16.5007 26.6673C16.5007 30.9108 18.1864 34.9804 21.187 37.981C24.1876 40.9816 28.2573 42.6673 32.5007 42.6673C36.7442 42.6673 40.8139 40.9816 43.8144 37.981C46.815 34.9804 48.5007 30.9108 48.5007 26.6673C48.5007 22.4239 46.815 18.3542 43.8144 15.3536C40.8139 12.353 36.7442 10.6673 32.5007 10.6673ZM32.5007 16.0007C35.3297 16.0007 38.0428 17.1245 40.0432 19.1248C42.0436 21.1252 43.1674 23.8383 43.1674 26.6673C43.1674 29.4963 42.0436 32.2094 40.0432 34.2098C38.0428 36.2102 35.3297 37.334 32.5007 37.334C29.6718 37.334 26.9587 36.2102 24.9583 34.2098C22.9579 32.2094 21.8341 29.4963 21.8341 26.6673C21.8341 23.8383 22.9579 21.1252 24.9583 19.1248C26.9587 17.1245 29.6718 16.0007 32.5007 16.0007Z" fill="#DFDEFF"/>
</svg>
