<svg width="64" height="64" viewBox="0 0 64 64" fill="none" xmlns="http://www.w3.org/2000/svg">
<path fill-rule="evenodd" clip-rule="evenodd" d="M31.9406 6.85762C30.0296 6.82311 28.1305 7.16579 26.3521 7.86605C24.5736 8.56631 22.9508 9.61041 21.5763 10.9386C20.2018 12.2668 19.1028 13.8529 18.342 15.6063C17.5813 17.3598 17.1738 19.246 17.1429 21.157V41.1433C17.1429 42.3558 16.6612 43.5185 15.8039 44.3758C14.9466 45.2331 13.7838 45.7148 12.5714 45.7148H6.85714C5.03852 45.7148 3.29437 44.9923 2.00841 43.7064C0.722447 42.4204 0 40.6762 0 38.8576L0 29.7148C0 27.8961 0.722447 26.152 2.00841 24.866C3.29437 23.5801 5.03852 22.8576 6.85714 22.8576H10.2857V21.0748C10.3274 18.2651 10.9222 15.4912 12.0361 12.9115C13.15 10.3318 14.7611 7.99672 16.7775 6.03973C18.794 4.08274 21.1761 2.54214 23.788 1.50591C26.3999 0.469689 29.1904 -0.0418629 32 0.000475738C34.8096 -0.0418629 37.6001 0.469689 40.212 1.50591C42.8239 2.54214 45.206 4.08274 47.2225 6.03973C49.2389 7.99672 50.85 10.3318 51.9639 12.9115C53.0778 15.4912 53.6726 18.2651 53.7143 21.0748V22.8576H57.1429C58.9615 22.8576 60.7056 23.5801 61.9916 24.866C63.2776 26.152 64 27.8961 64 29.7148V38.8576C64 40.6762 63.2776 42.4204 61.9916 43.7064C60.7056 44.9923 58.9615 45.7148 57.1429 45.7148H53.7143V48.0005C53.7149 51.0897 52.578 54.0709 50.5207 56.3753C48.4633 58.6797 45.6295 60.146 42.56 60.4942C41.9639 61.5585 41.0947 62.4445 40.042 63.0608C38.9893 63.6772 37.7913 64.0015 36.5714 64.0005H29.7143C27.8957 64.0005 26.1515 63.278 24.8656 61.9921C23.5796 60.7061 22.8571 58.962 22.8571 57.1433C22.8571 55.3247 23.5796 53.5806 24.8656 52.2946C26.1515 51.0086 27.8957 50.2862 29.7143 50.2862H36.5714C39.0491 50.2862 41.2206 51.5982 42.4229 53.5685C43.6829 53.2789 44.8074 52.5706 45.6128 51.5592C46.4182 50.5479 46.8569 49.2933 46.8571 48.0005V21.1525C46.8258 19.2316 46.414 17.3359 45.6455 15.5751C44.8771 13.8143 43.7673 12.2233 42.3802 10.894C40.9931 9.56479 39.3563 8.52365 37.5644 7.83082C35.7725 7.13799 33.8611 6.80722 31.9406 6.85762Z" fill="#DFDEFF"/>
</svg>
